<?xml version="1.0" encoding="UTF-8" standalone="no"?>
<svg
   xmlns:dc="http://purl.org/dc/elements/1.1/"
   xmlns:cc="http://creativecommons.org/ns#"
   xmlns:rdf="http://www.w3.org/1999/02/22-rdf-syntax-ns#"
   xmlns:svg="http://www.w3.org/2000/svg"
   xmlns="http://www.w3.org/2000/svg"
   xmlns:sodipodi="http://sodipodi.sourceforge.net/DTD/sodipodi-0.dtd"
   xmlns:inkscape="http://www.inkscape.org/namespaces/inkscape"
   width="107px"
   height="33px"
   viewBox="0 0 107 33"
   version="1.1"
   id="svg2"
   inkscape:version="0.91 r13725"
   sodipodi:docname="logo.svg">
  <metadata
     id="metadata19">
    <rdf:RDF>
      <cc:Work
         rdf:about="">
        <dc:format>image/svg+xml</dc:format>
        <dc:type
           rdf:resource="http://purl.org/dc/dcmitype/StillImage" />
      </cc:Work>
    </rdf:RDF>
  </metadata>
  <defs
     id="defs17" />
  <sodipodi:namedview
     pagecolor="#ffffff"
     bordercolor="#666666"
     borderopacity="1"
     objecttolerance="10"
     gridtolerance="10"
     guidetolerance="10"
     inkscape:pageopacity="0"
     inkscape:pageshadow="2"
     inkscape:window-width="1366"
     inkscape:window-height="705"
     id="namedview15"
     showgrid="false"
     inkscape:zoom="3.2523364"
     inkscape:cx="30.934808"
     inkscape:cy="16.5"
     inkscape:window-x="-8"
     inkscape:window-y="-8"
     inkscape:window-maximized="1"
     inkscape:current-layer="Symbols" />
  <!-- Generator: Sketch 61.2 (89653) - https://sketch.com -->
  <title
     id="title4">Bolby</title>
  <desc
     id="desc6">Created with Sketch.</desc>
  <g
     id="Symbols"
     stroke="none"
     stroke-width="1"
     fill="none"
     fill-rule="evenodd">
    <g
       style="fill:#dd2a2b;fill-rule:nonzero"
       id="Bolby."
       transform="translate(-42.922414,-100.66379)">
      <g
         id="g11"
         transform="translate(42.448,61.44)"
         style="fill:#dd2a2b">
        <path
           style="fill:#dd2a2b"
           inkscape:connector-curvature="0"
           id="Bolby"
           d="m 12.348,25.56 c 2.976,0 5.262,-0.672 6.858,-2.016 1.596,-1.344 2.394,-3.228 2.394,-5.652 0,-1.248 -0.336,-2.37 -1.008,-3.366 -0.672,-0.996 -1.5,-1.71 -2.484,-2.142 C 18.852,12 19.53,11.388 20.142,10.548 20.754,9.708 21.06,8.712 21.06,7.56 21.06,5.256 20.316,3.48 18.828,2.232 17.34,0.984 15.072,0.36 12.024,0.36 l 0,0 -11.124,0 C 0.636,0.36 0.42,0.45 0.252,0.63 0.084,0.81 0,1.032 0,1.296 l 0,0 0,23.364 c 0,0.24 0.09,0.45 0.27,0.63 0.18,0.18 0.39,0.27 0.63,0.27 l 0,0 11.448,0 z m -1.08,-15.228 -4.5,0 0,-5.112 4.5,0 c 0.912,0 1.602,0.234 2.07,0.702 0.468,0.468 0.702,1.074 0.702,1.818 0,0.768 -0.24,1.392 -0.72,1.872 -0.48,0.48 -1.164,0.72 -2.052,0.72 l 0,0 z m 0.324,10.368 -4.824,0 0,-5.652 4.824,0 c 0.912,0 1.632,0.27 2.16,0.81 0.528,0.54 0.792,1.218 0.792,2.034 0,0.792 -0.258,1.458 -0.774,1.998 -0.516,0.54 -1.242,0.81 -2.178,0.81 l 0,0 z m 22.464,5.22 c 3.024,0 5.346,-0.702 6.966,-2.106 1.62,-1.404 2.502,-3.402 2.646,-5.994 0.048,-0.624 0.072,-1.164 0.072,-1.62 0,-0.456 -0.024,-0.996 -0.072,-1.62 C 43.524,12.036 42.618,10.05 40.95,8.622 39.282,7.194 36.984,6.48 34.056,6.48 c -2.928,0 -5.226,0.714 -6.894,2.142 -1.668,1.428 -2.574,3.414 -2.718,5.958 -0.024,0.312 -0.036,0.852 -0.036,1.62 l 4.44e-4,0.247556 c 0.0024,0.637629 0.01422,1.095111 0.03556,1.372444 0.144,2.592 1.026,4.59 2.646,5.994 1.62,1.404 3.942,2.106 6.966,2.106 z m 0,-4.536 c -0.984,0 -1.716,-0.306 -2.196,-0.918 -0.48,-0.612 -0.756,-1.554 -0.828,-2.826 l 0,0 -0.036,-1.44 0.036,-1.44 c 0.072,-1.248 0.348,-2.184 0.828,-2.808 0.48,-0.624 1.212,-0.936 2.196,-0.936 0.984,0 1.716,0.312 2.196,0.936 0.48,0.624 0.756,1.56 0.828,2.808 0.024,0.24 0.036,0.72 0.036,1.44 0,0.72 -0.012,1.2 -0.036,1.44 -0.072,1.272 -0.348,2.214 -0.828,2.826 -0.48,0.612 -1.212,0.918 -2.196,0.918 z m 18.54,4.176 c 0.264,0 0.48,-0.09 0.648,-0.27 0.168,-0.18 0.252,-0.39 0.252,-0.63 l 0,0 0,-23.76 C 53.496,0.636 53.412,0.42 53.244,0.252 53.076,0.084 52.86,0 52.596,0 l 0,0 -4.5,0 C 47.832,0 47.61,0.084 47.43,0.252 47.25,0.42 47.16,0.636 47.16,0.9 l 0,0 0,23.76 c 0,0.264 0.09,0.48 0.27,0.648 0.18,0.168 0.402,0.252 0.666,0.252 l 0,0 4.5,0 z M 69.3,25.92 c 2.328,0 4.158,-0.732 5.49,-2.196 1.332,-1.464 2.046,-3.552 2.142,-6.264 0.024,-0.312 0.036,-0.732 0.036,-1.26 0,-0.552 -0.012,-0.984 -0.036,-1.296 C 76.836,12.288 76.116,10.23 74.772,8.73 73.428,7.23 71.604,6.48 69.3,6.48 c -2.16,0 -3.9,0.696 -5.22,2.088 l 0,0 0,-7.668 C 64.08,0.636 63.996,0.42 63.828,0.252 63.66,0.084 63.444,0 63.18,0 l 0,0 -4.644,0 C 58.272,0 58.05,0.084 57.87,0.252 57.69,0.42 57.6,0.636 57.6,0.9 l 0,0 0,23.76 c 0,0.264 0.09,0.48 0.27,0.648 0.18,0.168 0.402,0.252 0.666,0.252 l 0,0 4.284,0 c 0.264,0 0.48,-0.09 0.648,-0.27 0.168,-0.18 0.252,-0.39 0.252,-0.63 l 0,0 0,-1.116 c 1.296,1.584 3.156,2.376 5.58,2.376 z m -2.088,-5.004 c -1.032,0 -1.8,-0.33 -2.304,-0.99 -0.504,-0.66 -0.78,-1.494 -0.828,-2.502 -0.024,-0.336 -0.036,-0.792 -0.036,-1.368 l 7.35e-4,-0.238775 c 0.0029,-0.461388 0.01469,-0.825796 0.03526,-1.093225 0.048,-0.936 0.33,-1.71 0.846,-2.322 0.516,-0.612 1.278,-0.918 2.286,-0.918 1.08,0 1.854,0.318 2.322,0.954 0.468,0.636 0.738,1.518 0.81,2.646 0.024,0.24 0.036,0.612 0.036,1.116 0,0.504 -0.012,0.876 -0.036,1.116 -0.072,1.128 -0.342,2.01 -0.81,2.646 -0.468,0.636 -1.242,0.954 -2.322,0.954 z M 87.336,32.4 c 0.504,0 0.876,-0.252 1.116,-0.756 l 0,0 L 98.64,8.064 C 98.688,7.92 98.712,7.764 98.712,7.596 98.712,7.404 98.634,7.23 98.478,7.074 98.322,6.918 98.136,6.84 97.92,6.84 l 0,0 -4.248,0 c -0.48,0 -0.84,0.252 -1.08,0.756 l 0,0 L 88.488,17.82 84.492,7.596 C 84.3,7.092 83.952,6.84 83.448,6.84 l 0,0 -4.284,0 c -0.216,0 -0.402,0.078 -0.558,0.234 -0.156,0.156 -0.258,0.354 -0.306,0.594 0,0.072 0.036,0.204 0.108,0.396 l 0,0 6.912,16.344 -2.844,6.768 c -0.048,0.144 -0.072,0.3 -0.072,0.468 0,0.216 0.072,0.396 0.216,0.54 0.144,0.144 0.324,0.216 0.54,0.216 l 0,0 4.176,0 z" />
        <path
           style="fill:#dd2a2b"
           inkscape:connector-curvature="0"
           id="."
           d="m 105.048,25.56 c 0.264,0 0.48,-0.09 0.648,-0.27 0.168,-0.18 0.252,-0.39 0.252,-0.63 l 0,0 0,-4.752 c 0,-0.264 -0.084,-0.486 -0.252,-0.666 -0.168,-0.18 -0.384,-0.27 -0.648,-0.27 l 0,0 -4.752,0 c -0.264,0 -0.486,0.09 -0.666,0.27 -0.18,0.18 -0.27,0.402 -0.27,0.666 l 0,0 0,4.752 c 0,0.264 0.09,0.48 0.27,0.648 0.18,0.168 0.402,0.252 0.666,0.252 l 0,0 4.752,0 z" />
      </g>
    </g>
    <text
       xml:space="preserve"
       style="font-style:normal;font-weight:normal;font-size:39.29662704px;line-height:125%;font-family:sans-serif;letter-spacing:0px;word-spacing:0px;fill:#000000;fill-opacity:1;stroke:none;stroke-width:1px;stroke-linecap:butt;stroke-linejoin:miter;stroke-opacity:1"
       x="3.2198441"
       y="30.003201"
       id="text4151"
       sodipodi:linespacing="125%"
       transform="scale(0.98241565,1.0178991)"><tspan
         sodipodi:role="line"
         id="tspan4153"
         x="3.2198441"
         y="30.003201"
         style="font-style:normal;font-variant:normal;font-weight:bold;font-stretch:normal;font-size:39.29662704px;line-height:125%;font-family:Roboto;-inkscape-font-specification:'Roboto, Bold';text-align:start;writing-mode:lr-tb;text-anchor:start;fill:#dd2a2b"><tspan
   style="fill:#ffffff"
   id="tspan4155">PION</tspan>.</tspan></text>
  </g>
</svg>
